<svg xmlns="http://www.w3.org/2000/svg" width="159" height="36" fill="#fff"  fill-rule="evenodd" xmlns:v="https://vecta.io/nano"><path d="M67.467 11.513L63.55 25.081h-2.429l-3.743-11.047-3.767 11.047h-2.454L47.29 11.513h2.28l2.9 11.418 3.767-11.418h2.355l3.792 11.393 2.925-11.393h2.156zm8.278-.173c1.305 0 2.474.28 3.507.84a6.02 6.02 0 0 1 2.429 2.422c.587 1.055.88 2.29.88 3.707s-.293 2.649-.88 3.695a6.04 6.04 0 0 1-2.429 2.41c-1.033.56-2.202.84-3.507.84s-2.474-.28-3.507-.84a6.11 6.11 0 0 1-2.441-2.41c-.594-1.047-.892-2.278-.892-3.695s.297-2.653.892-3.707 1.409-1.862 2.441-2.422 2.202-.84 3.507-.84zm0 1.977a4.72 4.72 0 0 0-2.243.544c-.686.363-1.239.919-1.661 1.668s-.632 1.676-.632 2.78c0 1.087.211 2.006.632 2.756s.975 1.306 1.661 1.668a4.73 4.73 0 0 0 2.243.544 4.72 4.72 0 0 0 2.243-.544c.686-.363 1.239-.918 1.661-1.668s.632-1.668.632-2.756c0-1.104-.211-2.031-.632-2.78s-.975-1.306-1.661-1.668a4.73 4.73 0 0 0-2.243-.544zm12.021.939c.446-.939 1.099-1.668 1.958-2.187s1.884-.779 3.073-.779v2.447h-.694c-1.272 0-2.313.325-3.123.976s-1.215 1.726-1.215 3.225v7.142H85.51V11.513h2.255v2.743zm14.722 10.825l-5.204-6.104v6.104h-2.255V6.792h2.255V17.42l5.13-5.907h2.751l-6.097 6.747 6.246 6.821h-2.826zm13.087-13.964c1.14 0 2.161.284 3.061.853s1.611 1.384 2.132 2.447.781 2.319.781 3.769c0 1.433-.261 2.686-.781 3.757s-1.231 1.891-2.132 2.459-1.921.853-3.061.853c-1.057 0-1.966-.239-2.726-.717s-1.314-1.129-1.661-1.953v9.07h-4.238V11.291h4.238v2.496c.347-.824.901-1.475 1.661-1.953s1.669-.717 2.726-.717zm-1.363 3.707c-.892 0-1.623.301-2.193.902s-.855 1.421-.855 2.459c0 1.021.285 1.837.855 2.447s1.301.915 2.193.915c.909 0 1.64-.297 2.194-.89s.83-1.417.83-2.471-.277-1.878-.83-2.471-1.285-.89-2.194-.89zm23.299-3.534v13.791h-4.263v-2.496a4.59 4.59 0 0 1-1.773 1.928c-.785.478-1.697.717-2.738.717-1.587 0-2.847-.527-3.78-1.582s-1.401-2.504-1.401-4.35v-8.007h4.214v7.489c0 .939.244 1.668.731 2.187s1.144.779 1.971.779c.859 0 1.536-.272 2.032-.816s.744-1.318.744-2.323v-7.316h4.263zm7.163-4.498v18.289h-4.239V6.792h4.239zm7.956 4.325c1.751 0 3.152.437 4.201 1.31s1.706 2.027 1.97 3.46h-3.965c-.116-.56-.376-1.001-.781-1.322s-.913-.482-1.524-.482c-.48 0-.843.103-1.091.309s-.372.498-.372.877c0 .428.228.75.682.964s1.169.428 2.144.643c1.057.247 1.925.498 2.602.754a4.3 4.3 0 0 1 1.76 1.248c.496.577.744 1.351.744 2.323 0 .791-.215 1.491-.645 2.101s-1.049 1.087-1.859 1.433-1.768.519-2.875.519c-1.867 0-3.362-.412-4.486-1.236s-1.809-2.002-2.057-3.534h4.089c.067.593.319 1.046.756 1.359s1.004.47 1.698.47c.479 0 .843-.111 1.091-.334s.372-.515.372-.877c0-.478-.228-.82-.682-1.026s-1.194-.424-2.218-.655c-1.025-.214-1.867-.445-2.528-.692a4.18 4.18 0 0 1-1.711-1.199c-.479-.552-.718-1.306-.718-2.261 0-1.236.47-2.237 1.412-3.003s2.272-1.149 3.991-1.149zM21.458 9.697c.493 0 .946.275 1.174.712l6.118 11.734 3.527-5.294c.246-.369.659-.59 1.102-.59h4.768c0-.994 0 .66 0 1.392v1.259h-4.059l-4.375 6.568c-.26.39-.705.613-1.173.588a1.32 1.32 0 0 1-1.103-.711l-5.978-11.466-5.978 11.466c-.214.411-.628.68-1.09.71a1.32 1.32 0 0 1-1.171-.566l-4.768-6.86c-.418-.601-.27-1.427.331-1.845s1.426-.27 1.844.331l3.519 5.062 6.14-11.778c.228-.438.681-.712 1.174-.712zM0 13.346a3.18 3.18 0 0 1 2.212-3.03L34.001.153a3.18 3.18 0 0 1 4.146 3.03v29.633a3.18 3.18 0 0 1-4.03 3.065L2.328 27.045A3.18 3.18 0 0 1 0 23.98V13.346z"/></svg>